<svg width="18" height="18" viewBox="0 0 18 18" fill="none" xmlns="http://www.w3.org/2000/svg">
<path d="M0.00589834 4.81034C0.00336604 4.85093 0.0266569 4.88871 0.0636815 4.90554L8.58611 8.77937C8.84903 8.89888 9.15079 8.89888 9.41371 8.77937L17.9363 4.90546C17.9733 4.88863 17.9966 4.85085 17.9941 4.81025C17.8962 3.2418 16.5931 2 15 2H3C1.40685 2 0.103749 3.24185 0.00589834 4.81034Z" fill="#333333" style="fill:#333333;fill:color(display-p3 0.2000 0.2000 0.2000);fill-opacity:1;"/>
<path d="M18 9.09611C18 9.02338 17.9248 8.97497 17.8586 9.00507L10.1792 12.4957C9.42991 12.8363 8.56991 12.8363 7.82057 12.4957L0.14138 9.00515C0.0751701 8.97506 0 9.02346 0 9.09619V13C0 14.6569 1.34315 16 3 16H15C16.6569 16 18 14.6569 18 13V9.09611Z" fill="#333333" style="fill:#333333;fill:color(display-p3 0.2000 0.2000 0.2000);fill-opacity:1;"/>
</svg>
