<svg width="18" height="18" viewBox="0 0 18 18" fill="none" xmlns="http://www.w3.org/2000/svg">
<path fill-rule="evenodd" clip-rule="evenodd" d="M16 4.18517L15.9971 4.0834L15.9963 4.07008C15.9294 2.91533 14.9728 2 13.8016 2H7.39283L7.29108 2.00294L7.27777 2.00371C6.12301 2.07062 5.20766 3.02722 5.20766 4.19844V4.21172L5.2106 4.31347L5.21137 4.32678C5.27828 5.48155 6.23488 6.39689 7.40611 6.39689H8.4938L2.63338 12.2575L2.55546 12.3407L2.5456 12.3519C1.78684 13.216 1.81936 14.5316 2.6439 15.3561C3.50245 16.2146 4.89444 16.2146 5.75299 15.3561L11.6031 9.50568L11.6031 10.6072L11.6061 10.7089L11.6068 10.7222C11.6737 11.877 12.6303 12.7923 13.8016 12.7923C15.0157 12.7923 16 11.8081 16 10.5939V4.18517Z" fill="#333333" style="fill:#333333;fill:color(display-p3 0.2000 0.2000 0.2000);fill-opacity:1;"/>
</svg>
