<svg width="18" height="18" viewBox="0 0 18 18" fill="none" xmlns="http://www.w3.org/2000/svg">
<path fill-rule="evenodd" clip-rule="evenodd" d="M17.354 10.5451L17.4239 10.4711L17.4327 10.4611C18.2019 9.59729 18.1728 8.27364 17.3446 7.44546L12.8129 2.91381L12.7389 2.84394L12.7289 2.83507C11.8651 2.06584 10.5414 2.09501 9.71325 2.9232L9.70386 2.93258L9.634 3.00661L9.62513 3.01657C8.8559 3.88042 8.88507 5.20408 9.71325 6.03227L10.4824 6.80138L2.19431 6.80155L2.08043 6.80523L2.06552 6.8062C0.91798 6.8807 0.0107421 7.83393 0.0107422 8.99999C0.0107432 10.2142 0.995052 11.1984 2.20921 11.1984L10.4827 11.1982L9.70385 11.9771L9.63398 12.0512L9.62513 12.0611C8.8559 12.9249 8.88507 14.2486 9.71325 15.0768C10.5718 15.9353 11.9638 15.9353 12.8223 15.0768L17.354 10.5451Z" fill="white" style="fill:white;fill:white;fill-opacity:1;"/>
</svg>
