<svg width="485" height="60" viewBox="0 0 485 60" fill="none" xmlns="http://www.w3.org/2000/svg">
<path fill-rule="evenodd" clip-rule="evenodd" d="M40.8832 0H25.6749V39.177C25.6749 44.856 23.7125 46.8313 20.1966 46.8313C16.4354 46.8313 14.3095 44.6914 14.3095 40.823V35.3909H0V37.9424C0 51.0288 4.98769 60 20.4414 60C34.1779 60 40.8827 53.3333 40.8827 40.1646V0H40.8832ZM87.7329 16.0467H73.8328V38.9274C73.8328 46.4994 69.2539 48.4747 66.2286 48.4747C61.8133 48.4747 59.3603 46.4994 59.3603 40.8204V16.0467H45.4602V41.7257C45.4602 52.9191 48.9761 59.9973 61.1592 59.9973C66.0651 59.9973 71.4616 57.2813 74.0781 52.9191H74.2416V58.7628H87.7329V16.047V16.0467ZM90.1024 44.6906C90.5112 56.6247 100.814 59.9992 110.871 59.9992C120.437 59.9992 131.23 56.2132 131.23 44.7729C131.23 41.2338 129.023 34.9787 120.437 33.2503C114.06 31.8511 104.738 31.1103 104.738 27.0774C104.738 24.1145 108.418 23.8675 110.707 23.8675C112.424 23.8675 113.978 24.1968 115.123 24.9375C116.267 25.6782 116.921 26.8305 116.921 28.6412H129.759C129.268 17.5301 119.538 14.8141 110.217 14.8141C101.877 14.8141 90.8383 17.6124 90.8383 27.9005C90.8383 39.4231 101.795 39.67 110.544 41.8922C112.997 42.4684 117.33 43.1268 117.33 46.419C117.33 49.7935 113.487 50.9457 110.789 50.9457C108.827 50.9457 106.946 50.4519 105.638 49.4643C104.147 48.3442 103.292 46.5625 103.348 44.6906H90.1005H90.1024ZM159.115 16.0475H150.527V3.1257H136.627V16.0475H129.595V25.101H136.627V44.1134C136.627 55.7183 139.653 59.1751 151.509 59.1751C154.043 59.1751 156.578 58.8459 159.113 58.7636V48.4755C157.886 48.4755 156.66 48.6401 155.515 48.6401C152.49 48.6401 150.527 47.8994 150.527 44.5249V25.101H159.113V16.0475H159.115ZM163.367 58.768H177.267V16.0522H163.367V58.7683V58.768ZM177.267 0H163.367V10.6996H177.267V0ZM182.993 58.7647H196.893V35.4725C196.893 30.7811 199.182 26.3367 204.415 26.3367C212.02 26.3367 211.365 32.2626 211.365 38.1062V58.7647H225.266V31.3573C225.266 25.1844 224.121 14.8141 209.975 14.8141C204.906 14.8141 199.182 17.5301 196.648 21.8922H196.484V16.0486H182.991V58.7647H182.993ZM294.021 0H243.981V13.1687H261.397V58.7654H276.605V13.169H294.021V0.000274348V0ZM324.356 16.0467H310.456V38.9274C310.456 46.4994 305.877 48.4747 302.852 48.4747C298.436 48.4747 295.983 46.4994 295.983 40.8204V16.0467H282.083V41.7257C282.083 52.9191 285.599 59.9973 297.782 59.9973C302.688 59.9973 308.085 57.2813 310.701 52.9191H310.865V58.7628H324.356V16.047V16.0467ZM329.266 58.7669H343.166V37.6146C343.166 32.2648 346.764 27.4912 353.632 27.4912C355.433 27.5168 357.222 27.7938 358.947 28.3142V15.557C357.872 15.3254 356.775 15.2149 355.676 15.2278C349.707 15.2278 344.965 18.1084 342.921 23.5405H342.757V16.0508H329.266V58.7669V58.7669ZM361.15 58.7647H375.053V35.4725C375.053 30.7811 377.343 26.3367 382.576 26.3367C390.18 26.3367 389.526 32.2626 389.526 38.1062V58.7647H403.426V31.3573C403.426 25.1844 402.281 14.8141 388.136 14.8141C383.066 14.8141 377.343 17.5301 374.808 21.8922H374.644V16.0486H361.15V58.7647V58.7647ZM420.428 33.0035C421.246 27.8183 424.517 24.2792 429.423 24.2792C434.083 24.2792 437.436 28.2298 437.681 33.0035H420.428ZM451.581 40.8223C452.235 26.3367 444.631 14.8141 429.422 14.8141C416.912 14.8141 406.528 24.1968 406.528 37.2832C406.528 51.6042 415.931 59.9992 429.749 59.9992C439.234 59.9992 448.31 55.7194 450.845 45.8429H437.844C436.536 48.9704 433.265 50.5342 429.913 50.5342C424.026 50.5342 420.673 46.6659 420.428 40.8223H451.581V40.8223ZM454.932 58.7669H468.832V37.6146C468.832 32.2648 472.43 27.4912 479.298 27.4912C481.099 27.5168 482.888 27.7938 484.613 28.3142V15.557C483.538 15.3254 482.441 15.2149 481.342 15.2278C475.374 15.2278 470.631 18.1084 468.587 23.5405H468.424V16.0508H454.932V58.7669V58.7669Z" fill="#E44B3A" style="fill:#E44B3A;fill:color(display-p3 0.8941 0.2941 0.2275);fill-opacity:1;"/>
</svg>
